<?xml version="1.0"?>
<!--Icons from directory ""-->
<svg xmlns="http://www.w3.org/2000/svg" width="20" height="660" viewBox="0 0 20 660"><svg width="20" height="20" viewBox="-2 -2 20 20" id="ic_cad" y="0"><g fill="none" fill-rule="evenodd"><path d="M1.5.5v15h13V4.98L9.942.5H1.5z" stroke="#DBDBDB" fill="#F8F8F8"/><circle stroke="#1B8DE2" cx="8.179" cy="5.008" r="1.5"/><rect stroke="#1B8DE2" stroke-width="2" fill="#4A4A4A" transform="rotate(20 6.833 9.747)" x="7.333" y="7.239" width="1" height="5.016" rx=".5"/><path stroke="#1B8DE2" fill="#D8D8D8" d="M4.93 10.508v-1h6.5v1z"/><rect stroke="#1B8DE2" transform="rotate(-180 5.325 13.23)" x="5.325" y="12.98" width="1" height="1" rx=".5"/><path stroke="#1B8DE2" fill="#D8D8D8" d="M4.31 10.376v1h-1v-1zM11.81 10.376v1h-1v-1z"/><rect stroke="#1B8DE2" stroke-width="2" fill="#4A4A4A" transform="rotate(-18 9.857 9.631)" x="10.357" y="7.123" width="1" height="5.016" rx=".5"/><path d="M10.797 13.504c.121 0 .219.098.219.218v-.937a.219.219 0 0 1-.437 0v.937c0-.12.097-.218.218-.218z" stroke="#1B8DE2"/><rect stroke="#1B8DE2" x="7.929" y="10.008" width="1" height="1" rx=".5"/><rect stroke="#1B8DE2" transform="rotate(90 8.19 3)" x="7.939" y="2.743" width="1" height="1" rx=".5"/></g></svg><svg width="20" height="20" viewBox="-2 -2 20 20" id="ic_css" y="20"><g fill="none" fill-rule="evenodd"><path d="M1.5.5v15h13V4.98L9.942.5H1.5z" stroke="#DBDBDB" fill="#F8F8F8"/><g fill="#1B8DE2"><path d="M6.504 14.892a3.018 3.018 0 0 1-1.086.186c-.676 0-1.188-.181-1.536-.543-.348-.362-.522-.893-.522-1.593 0-.692.182-1.228.546-1.608.364-.38.876-.57 1.536-.57.352 0 .686.056 1.002.168v.708a4.345 4.345 0 0 0-.894-.12c-.416 0-.727.11-.933.33-.206.22-.309.556-.309 1.008v.138c0 .448.1.781.3.999.2.218.506.327.918.327.232 0 .558-.046.978-.138v.708zm1.347-1.71c-.356-.132-.612-.293-.768-.483-.156-.19-.234-.431-.234-.723 0-.376.14-.676.417-.9.278-.224.651-.336 1.12-.336.391 0 .775.072 1.151.216v.684a3.672 3.672 0 0 0-1.08-.18c-.472 0-.708.152-.708.456a.35.35 0 0 0 .123.276c.082.072.235.148.46.228l.443.162c.372.136.637.295.795.477.158.182.237.419.237.711 0 .412-.148.737-.444.975-.296.238-.702.357-1.218.357a3.64 3.64 0 0 1-.672-.063 2.56 2.56 0 0 1-.576-.171v-.684a4.886 4.886 0 0 0 1.26.198c.236 0 .418-.043.546-.129a.418.418 0 0 0 .192-.369.38.38 0 0 0-.117-.294c-.078-.072-.235-.152-.47-.24l-.457-.168zm3.322 0c-.356-.132-.612-.293-.768-.483-.156-.19-.234-.431-.234-.723 0-.376.139-.676.417-.9.278-.224.65-.336 1.119-.336.392 0 .776.072 1.152.216v.684a3.672 3.672 0 0 0-1.08-.18c-.472 0-.708.152-.708.456a.35.35 0 0 0 .123.276c.082.072.235.148.459.228l.444.162c.372.136.637.295.795.477.158.182.237.419.237.711 0 .412-.148.737-.444.975-.296.238-.702.357-1.218.357a3.64 3.64 0 0 1-.672-.063 2.56 2.56 0 0 1-.576-.171v-.684a4.886 4.886 0 0 0 1.26.198c.236 0 .418-.043.546-.129a.418.418 0 0 0 .192-.369.38.38 0 0 0-.117-.294c-.078-.072-.235-.152-.471-.24l-.456-.168z"/><text font-family="AmazonEmber-Regular, Amazon Ember" font-size="8" letter-spacing="-.171" transform="translate(3 1)"><tspan x="1" y="8">{</tspan></text><text font-family="AmazonEmber-Regular, Amazon Ember" font-size="8" letter-spacing="-.171" transform="translate(3 1)"><tspan x="6" y="8">}</tspan></text></g></g></svg><svg width="20" height="20" viewBox="-2 -2 20 20" id="ic_doc" y="40"><g fill="none" fill-rule="evenodd"><path d="M1.5.5v15h13V4.98L9.942.5H1.5z" stroke="#DBDBDB" fill="#F8F8F8"/><g transform="translate(3 5)" fill="#1B8DE2"><rect width="10" height="1" rx=".5"/><rect y="2" width="10" height="1" rx=".5"/><rect y="4" width="10" height="1" rx=".5"/><rect y="6" width="5" height="1" rx=".5"/></g></g></svg><svg width="20" height="20" viewBox="-2 -2 20 20" id="ic_doc_generic" y="60"><path d="M1.5.5v15h13V4.98L9.942.5H1.5z" stroke="#DBDBDB" fill="#F8F8F8" fill-rule="evenodd"/></svg><svg width="20" height="20" viewBox="-2 -2 20 20" id="ic_doc_locked" y="80"><g fill="none" fill-rule="evenodd"><path d="M1.5.5v15h13V4.98L9.942.5H1.5z" stroke="#DBDBDB" fill="#F8F8F8"/><rect fill="#1B8DE2" x="9" y="11" width="6" height="5" rx="1"/><rect stroke="#1B8DE2" x="10.5" y="8.5" width="3" height="4" rx="1.5"/><rect fill="#F8F8F8" x="11" y="12" width="2" height="2" rx="1"/></g></svg><svg width="20" height="20" viewBox="-2 -2 20 20" id="ic_doc_shared" y="100"><g fill="none" fill-rule="evenodd"><path d="M1.5.5v15h13V4.98L9.942.5H1.5z" stroke="#DBDBDB" fill="#F8F8F8"/><circle fill="#1B8DE2" cx="12" cy="9" r="2"/><path d="M10.4 11c.365.607.946 1 1.6 1 .654 0 1.235-.393 1.6-1h.4a1 1 0 0 1 1 1v3a1 1 0 0 1-1 1h-4a1 1 0 0 1-1-1v-3a1 1 0 0 1 1-1h.4z" fill="#1B8DE2"/></g></svg><svg width="20" height="20" viewBox="-2 -2 20 20" id="ic_doc_shared_link" y="120"><g fill="none" fill-rule="evenodd"><path d="M1.5.5v15h13V4.98L9.942.5H1.5z" stroke="#DBDBDB" fill="#F8F8F8"/><g transform="translate(5 11)"><path d="M4.5 2.5c0-1.133-.63-2-1.318-2H1.818C1.131.5.5 1.367.5 2.5s.63 2 1.318 2h1.364c.687 0 1.318-.867 1.318-2zM9.5 2.5c0-1.133-.63-2-1.318-2H6.818c-.687 0-1.318.867-1.318 2s.63 2 1.318 2h1.364c.687 0 1.318-.867 1.318-2z" stroke="#1B8DE2"/><rect fill="#1B8DE2" x="2" y="2" width="6" height="1" rx=".5"/></g></g></svg><svg width="20" height="20" viewBox="-2 -2 20 20" id="ic_doc_shared_locked" y="140"><g fill="none" fill-rule="evenodd"><path d="M1.5.5v15h13V4.98L9.942.5H1.5z" stroke="#DBDBDB" fill="#F8F8F8"/><circle fill="#1B8DE2" cx="12" cy="9" r="2"/><path d="M10.4 11c.365.607.946 1 1.6 1 .654 0 1.235-.393 1.6-1h.4a1 1 0 0 1 1 1v3a1 1 0 0 1-1 1h-4a1 1 0 0 1-1-1v-3a1 1 0 0 1 1-1h.4z" fill="#1B8DE2"/><rect fill="#1B8DE2" x="1" y="11" width="6" height="5" rx="1"/><rect stroke="#1B8DE2" x="2.5" y="8.5" width="3" height="4" rx="1.5"/><rect fill="#F8F8F8" x="3" y="12" width="2" height="2" rx="1"/></g></svg><svg width="20" height="20" viewBox="-2 -2 20 20" id="ic_docx" y="160"><g fill="none" fill-rule="evenodd"><path d="M1.5.5v15h13V4.98L9.942.5H1.5z" stroke="#DBDBDB" fill="#F8F8F8"/><g transform="translate(3 1)" fill="#1B8DE2"><rect x="7" y="7" width="3" height="1" rx=".5"/><path d="M4.752 8l-.784-3.624L3.2 8H1.576L.08 2.456h1.696l.648 3.832.792-3.72h1.568l.792 3.776.656-3.888h1.64L6.384 8z"/></g><rect fill="#1B8DE2" x="3" y="10" width="10" height="1" rx=".5"/><rect fill="#1B8DE2" x="3" y="12" width="10" height="1" rx=".5"/></g></svg><svg width="20" height="20" viewBox="-2 -2 20 20" id="ic_eps" y="180"><g fill="none" fill-rule="evenodd"><path d="M1.5.5v15h13V4.98L9.942.5H1.5z" stroke="#DBDBDB" fill="#F8F8F8"/><path d="M12 10a4 4 0 1 0-8 0" stroke="#1B8DE2" stroke-width=".75"/><rect fill="#1B8DE2" x="3" y="5" width="10" height="1" rx=".5"/><rect stroke="#1B8DE2" stroke-width=".75" x="11.375" y="10.375" width="1.25" height="1.25" rx=".5"/><rect stroke="#1B8DE2" stroke-width=".75" x="7.375" y="5.375" width="1.25" height="1.25" rx=".5"/><rect stroke="#1B8DE2" stroke-width=".75" x="3.375" y="10.375" width="1.25" height="1.25" rx=".5"/></g></svg><svg width="20" height="20" viewBox="-2 -2 20 20" id="ic_exe" y="200"><g fill="none" fill-rule="evenodd"><rect x=".5" y=".5" width="15" height="11" rx=".5" transform="translate(0 3)" fill="#F8F8F8" stroke="#DBDBDB"/><path fill="#DBDBDB" d="M2.116 1H5.66L8 3l-8.5.5z"/><g fill="#1B8DE2"><path d="M4.324 8.205c.124-.4.305-.775.536-1.114A.933.933 0 0 0 6 6.185a.933.933 0 0 0-.024-.21c.339-.23.713-.412 1.114-.535a1.395 1.395 0 0 0 2.469 0c.4.123.775.305 1.114.535a.933.933 0 0 0 .906 1.14.933.933 0 0 0 .21-.024c.23.34.412.714.535 1.114a1.395 1.395 0 0 0 0 2.47c-.123.4-.305.774-.535 1.113a.933.933 0 0 0-1.14.907c0 .072.008.142.024.21-.34.23-.714.411-1.114.535a1.395 1.395 0 0 0-2.47 0 4.168 4.168 0 0 1-1.113-.536.933.933 0 0 0-.907-1.14.933.933 0 0 0-.21.024 4.168 4.168 0 0 1-.535-1.114 1.395 1.395 0 0 0 0-2.469zm4 3.56a2.325 2.325 0 1 0 0-4.65 2.325 2.325 0 0 0 0 4.65z"/></g></g></svg><svg width="20" height="20" viewBox="-2 -2 20 20" id="ic_folder" y="220"><g fill="none" fill-rule="evenodd"><rect x=".5" y=".5" width="15" height="11" rx=".5" transform="translate(0 3)" fill="#F8F8F8" stroke="#DBDBDB"/><path fill="#DBDBDB" d="M2.116 1H5.66L8 3l-8.5.5z"/></g></svg><svg width="20" height="20" viewBox="-2 -2 20 20" id="ic_folder_share" y="240"><g fill="none" fill-rule="evenodd"><rect x=".5" y=".5" width="15" height="11" rx=".5" transform="translate(0 3)" fill="#F8F8F8" stroke="#DBDBDB"/><path fill="#DBDBDB" d="M2.116 1H5.66L8 3l-8.5.5z"/><circle fill="#1B8DE2" cx="13" cy="8" r="2"/><path d="M11.4 10c.365.607.946 1 1.6 1 .654 0 1.235-.393 1.6-1h.4a1 1 0 0 1 1 1v3a1 1 0 0 1-1 1h-4a1 1 0 0 1-1-1v-3a1 1 0 0 1 1-1h.4z" fill="#1B8DE2"/></g></svg><svg width="20" height="20" viewBox="-2 -2 20 20" id="ic_folder_share_link" y="260"><g fill="none" fill-rule="evenodd"><rect x=".5" y=".5" width="15" height="11" rx=".5" transform="translate(0 3)" fill="#F8F8F8" stroke="#DBDBDB"/><path fill="#DBDBDB" d="M2.116 1H5.66L8 3l-8.5.5z"/><g transform="translate(6 10)"><path d="M4.5 2.5c0-1.133-.63-2-1.318-2H1.818C1.131.5.5 1.367.5 2.5s.63 2 1.318 2h1.364c.687 0 1.318-.867 1.318-2zM9.5 2.5c0-1.133-.63-2-1.318-2H6.818c-.687 0-1.318.867-1.318 2s.63 2 1.318 2h1.364c.687 0 1.318-.867 1.318-2z" stroke="#1B8DE2"/><rect fill="#1B8DE2" x="2" y="2" width="6" height="1" rx=".5"/></g></g></svg><svg width="20" height="20" viewBox="-2 -2 20 20" id="ic_gif" y="280"><g fill="none" fill-rule="evenodd"><path d="M1.5.5v15h13V4.98L9.942.5H1.5z" stroke="#DBDBDB" fill="#F8F8F8"/><circle stroke="#F8F8F8" fill="#1B8DE2" cx="7.5" cy="7.5" r="1"/><g transform="translate(4 3)"><path fill="#4A4A4A" d="M3 9h2v1H3z"/><path d="M5.123.855l-.946-.882a.5.5 0 0 0-.707.025L2.59.943a.5.5 0 0 0 .383.841l1.827-.064a.5.5 0 0 0 .324-.865zM6.607 4.394L4.19 2.218a.5.5 0 0 0-.676.006l-2.368 2.21a.5.5 0 0 0 .345.865l4.784-.033a.5.5 0 0 0 .332-.872zM7.48 8.134l-.897-.726L4.23 5.503a.5.5 0 0 0-.655.022L.669 8.233a.5.5 0 0 0 .347.866l6.155-.077a.5.5 0 0 0 .308-.888z" stroke="#098BE5" stroke-width=".75"/><rect stroke="#098BE5" x="3.5" y="9.5" width="1" height="1" rx=".5"/></g></g></svg><svg width="20" height="20" viewBox="-2 -2 20 20" id="ic_html" y="300"><g fill="none" fill-rule="evenodd"><path d="M1.5.5v15h13V4.98L9.942.5H1.5z" stroke="#DBDBDB" fill="#F8F8F8"/><path d="M8.072 11.178l1.695-.423V8.767H5V4h6.356v1.589H6.759v1.589h4.767v4.939l-.427.082L8.036 13l-.002-.011-2.31-.62-.713-.18V9.384h1.76v1.444l1.301.349z" fill="#1B8DE2"/></g></svg><svg width="20" height="20" viewBox="-2 -2 20 20" id="ic_jpg" y="320"><g fill="none" fill-rule="evenodd"><g transform="translate(1)"><path d="M.5.5v15h13V4.98L8.942.5H.5z" stroke="#DBDBDB" fill="#F8F8F8"/><rect stroke="#1B8DE2" stroke-width=".75" fill="#1B8DE2" x="2.375" y="6.375" width="9.25" height="5.25" rx=".5"/><circle stroke="#F8F8F8" fill="#1B8DE2" cx="7.5" cy="7.5" r="1"/></g><path fill="#F8F8F8" d="M6 8l3 4H3z"/><path fill="#F8F8F8" d="M10.5 9l2.5 3H8z"/></g></svg><svg width="20" height="20" viewBox="-2 -2 20 20" id="ic_js" y="340"><g fill="none" fill-rule="evenodd"><path d="M1.5.5v15h13V4.98L9.942.5H1.5z" stroke="#DBDBDB" fill="#F8F8F8"/><g fill="#1B8DE2"><path d="M3.148 7.464v-.7L7 4.034v.77L3.668 7.1 7 9.396v.798zM12.852 6.73v.7L9 10.16v-.77l3.332-2.296L9 4.798V4z"/><text font-family="AmazonEmber-Bold, Amazon Ember" font-size="6" font-weight="bold" letter-spacing="-.129" transform="translate(3 4)"><tspan x="2" y="11">JS</tspan></text></g></g></svg><svg width="20" height="20" viewBox="-2 -2 20 20" id="ic_key" y="360"><g fill="none" fill-rule="evenodd"><path d="M1.5.5v15h13V4.98L9.942.5H1.5z" stroke="#DBDBDB" fill="#F8F8F8"/><g transform="translate(3 5)"><path fill="#1B8DE2" d="M4 1h2v8H4z"/><rect stroke="#1B8DE2" stroke-width=".75" fill="#F8F8F8" x=".375" y=".375" width="9.25" height="6.25" rx=".5"/></g><rect fill="#1B8DE2" x="6" y="13" width="4" height="1" rx=".5"/></g></svg><svg width="20" height="20" viewBox="-2 -2 20 20" id="ic_mov" y="380"><g fill="none" fill-rule="evenodd"><path d="M1.5.5v15h13V4.98L9.942.5H1.5z" stroke="#DBDBDB" fill="#F8F8F8"/><g transform="translate(4 4)"><path fill="#FFF" d="M6 6h2v2H6z"/><circle stroke="#1B8DE2" stroke-width="2" cx="4" cy="4" r="4"/><path fill="#1B8DE2" d="M5.741.391l1.439 1.39L4.4 4.658l-1.439-1.39z"/><path fill="#FFF" d="M5.741.391l1.439 1.39-.695.72-1.439-1.39z"/><path fill="#1B8DE2" d="M9.344 7.74L7.905 9.13l-2.35-2.433 1.44-1.389z"/><path stroke="#1B8DE2" fill="#4A4A4A" d="M7.93 9.115h1.357V7.766z"/></g></g></svg><svg width="20" height="20" viewBox="-2 -2 20 20" id="ic_mp3" y="400"><g fill="none" fill-rule="evenodd"><path d="M1.5.5v15h13V4.98L9.942.5H1.5z" fill="#F8F8F8" stroke="#DBDBDB"/><g transform="translate(2.271 3.929)" fill="#1B8DE2"><rect x="4.655" y="1.052" width="6" height="1" rx=".5"/><rect transform="rotate(101 4.296 4.59)" x=".796" y="4.091" width="7" height="1" rx=".5"/><rect transform="rotate(102 9.77 4)" x="6.77" y="3.625" width="6" height="1" rx=".5"/><ellipse cx="2.258" cy="7.336" rx="2" ry="1.5"/><ellipse cx="7.652" cy="6.27" rx="2" ry="1.5"/></g></g></svg><svg width="20" height="20" viewBox="-2 -2 20 20" id="ic_mp4" y="420"><g fill="none" fill-rule="evenodd"><path d="M1.5.5v15h13V4.98L9.942.5H1.5z" stroke="#DBDBDB" fill="#F8F8F8"/><path fill="#1B8DE2" d="M3 6h10v3H3z"/><path stroke="#1B8DE2" stroke-width=".75" d="M3.375 5.375h9.25v7.25h-9.25z"/><path fill="#F8F8F8" d="M4 7h1v1H4zM7 7h2v1H7zM11 7h1v1h-1z"/></g></svg><svg width="20" height="20" viewBox="-2 -2 20 20" id="ic_pdf" y="440"><g fill="none" fill-rule="evenodd"><path d="M1.5.5v15h13V4.98L9.942.5H1.5z" stroke="#DBDBDB" fill="#F8F8F8"/><path d="M7.533 4.02c-.151-.142-.636.508-.656.855-.06.98.055.896.496 1.8.325.665.722 1.046 1.023 1.328.225.21.32.309.703.738.686.767.596 1.13 1.439 1.475.596.244 1.282.024 1.438-.295.132-.271-.298-.752-.863-.885-1.305-.31-1.449-.098-2.877 0-.729.05-.74.08-1.438.295-.74.227-1.072.227-1.647.59-.785.56-.626.318-.942.885-.26.465-.298 1.119 0 1.18.422.086.965-.23 1.438-.885.966-1.336 1.23-1.948 1.517-2.686.288-.737.723-1.66.865-2.92.082-.732-.176-1.175-.496-1.475z" stroke="#1B8DE2"/></g></svg><svg width="20" height="20" viewBox="-2 -2 20 20" id="ic_php" y="460"><g fill="none" fill-rule="evenodd"><path d="M1.5.5v15h13V4.98L9.942.5H1.5z" stroke="#DBDBDB" fill="#F8F8F8"/><g fill="#1B8DE2"><path d="M3.148 7.464v-.7L7 4.034v.77L3.668 7.1 7 9.396v.798zM12.852 6.73v.7L9 10.16v-.77l3.332-2.296L9 4.798V4z"/></g><text transform="translate(2 9)" fill="#1B8DE2" font-family="AmazonEmber-Bold, Amazon Ember" font-size="6" font-weight="bold" letter-spacing="-.129"><tspan x="0" y="6">PHP</tspan></text></g></svg><svg width="20" height="20" viewBox="-2 -2 20 20" id="ic_png" y="480"><g fill="none" fill-rule="evenodd"><path d="M1.5.5v15h13V4.98L9.942.5H1.5z" stroke="#DBDBDB" fill="#F8F8F8"/><circle stroke="#F8F8F8" fill="#1B8DE2" cx="7.5" cy="7.5" r="1"/><g transform="translate(3 5)"><rect stroke="#1B8DE2" stroke-width=".75" fill="#1B8DE2" x=".375" y=".375" width="9.25" height="7.25" rx=".5"/><path fill="#1B8DE2" d="M2 2h2v2H2z"/><path fill="#F8F8F8" d="M0 4h2v2H0zM2 6h2v2H2zM0 0h2v2H0zM2 2h2v2H2zM4 4h2v2H4zM6 6h2v2H6z"/></g></g></svg><svg width="20" height="20" viewBox="-2 -2 20 20" id="ic_ppt" y="500"><g fill="none" fill-rule="evenodd"><path d="M1.5.5v15h13V4.98L9.942.5H1.5z" stroke="#DBDBDB" fill="#F8F8F8"/><path d="M4.143 5.062l3.222.706L7.348 3a3 3 0 1 1-3.205 2.062z" fill="#1B8DE2" stroke="#1B8DE2" stroke-width=".75"/><rect fill="#1B8DE2" x="3" y="11" width="10" height="1" rx=".5"/><rect fill="#1B8DE2" x="3" y="13" width="5" height="1" rx=".5"/></g></svg><svg width="20" height="20" viewBox="-2 -2 20 20" id="ic_psd" y="520"><g fill="none" fill-rule="evenodd"><path d="M1.5.5v15h13V4.98L9.942.5H1.5z" stroke="#DBDBDB" fill="#F8F8F8"/><path d="M5.17 9.403v2.555H3.705v-7h2.656c.721 0 1.292.199 1.713.596.421.398.631.94.631 1.626 0 .687-.21 1.23-.63 1.627-.422.397-.993.596-1.714.596H5.169zm0-1.132H6.19c.334 0 .59-.092.767-.277.177-.186.265-.457.265-.814 0-.356-.088-.627-.265-.813-.177-.185-.433-.277-.767-.277H5.17V8.27zM11.385 10.645a.489.489 0 0 0-.107-.337c-.072-.08-.216-.167-.434-.262l-.728-.337c-.38-.175-.654-.389-.822-.643-.168-.254-.252-.577-.252-.969 0-.493.17-.89.51-1.192.338-.301.79-.452 1.357-.452.523 0 1.005.12 1.447.36v1.055a3.995 3.995 0 0 0-1.326-.25c-.255 0-.441.036-.56.109-.118.073-.177.189-.177.348a.42.42 0 0 0 .107.3c.072.076.223.169.453.277l.71.338c.385.182.66.392.825.632.165.24.248.551.248.936 0 .537-.176.971-.528 1.301-.351.33-.813.496-1.386.496-.64 0-1.207-.15-1.698-.447v-1.056c.616.225 1.179.338 1.69.338.447 0 .671-.182.671-.545z" fill="#1B8DE2"/></g></svg><svg width="20" height="20" viewBox="-2 -2 20 20" id="ic_sketch" y="540"><g fill="none" fill-rule="evenodd"><path d="M1.5.5v15h13V4.98L9.942.5H1.5z" stroke="#DBDBDB" fill="#F8F8F8"/><path d="M5.333 6h5.334L12 8.1 8 13 4 8.1z" stroke="#1B8DE2" stroke-width=".75"/></g></svg><svg width="20" height="20" viewBox="-2 -2 20 20" id="ic_txt" y="560"><g fill="none" fill-rule="evenodd"><path d="M1.5.5v15h13V4.98L9.942.5H1.5z" stroke="#DBDBDB" fill="#F8F8F8"/><rect fill="#1B8DE2" x="3" y="5" width="10" height="1" rx=".5"/><rect fill="#1B8DE2" x="3" y="7" width="10" height="1" rx=".5"/><rect fill="#1B8DE2" x="3" y="9" width="10" height="1" rx=".5"/><text transform="translate(3 9)" fill="#1B8DE2" font-family="AmazonEmber-Bold, Amazon Ember" font-size="6" font-weight="bold" letter-spacing="-.129"><tspan x="0" y="6">TXT</tspan></text></g></svg><svg width="20" height="20" viewBox="-2 -2 20 20" id="ic_wav" y="580"><g fill="none" fill-rule="evenodd"><path d="M1.5.5v15h13V4.98L9.942.5H1.5z" stroke="#DBDBDB" fill="#F8F8F8"/><g transform="translate(2 4)" fill="#1B8DE2"><rect y="4" width="4" height="1" rx=".5"/><rect x="9.935" y="3.995" width="2.065" height="1" rx=".5"/><rect transform="rotate(96 6.853 4.988)" x="1.963" y="4.488" width="9.78" height="1" rx=".5"/><rect transform="rotate(103 3.976 2.525)" x="1.657" y="2.025" width="4.638" height="1" rx=".5"/><rect transform="rotate(78 5.404 5.032)" x=".421" y="4.532" width="9.966" height="1" rx=".5"/><rect transform="rotate(78 7.777 2.544)" x="5.329" y="2.044" width="4.895" height="1" rx=".5"/><rect transform="rotate(106 8.63 3.01)" x="6.629" y="2.51" width="4" height="1" rx=".5"/><rect transform="rotate(-116 9.699 2.97)" x="7.699" y="2.47" width="4" height="1" rx=".5"/></g></g></svg><svg width="20" height="20" viewBox="-2 -2 20 20" id="ic_xls" y="600"><g fill="none" fill-rule="evenodd"><path d="M1.5.5v15h13V4.98L9.942.5H1.5z" stroke="#DBDBDB" fill="#F8F8F8"/><g transform="translate(3 5)"><rect stroke="#1B8DE2" stroke-width=".75" fill="#1B8DE2" x=".375" y=".375" width="9.25" height="7.25" rx=".5"/><path fill="#F8F8F8" d="M7 6h2v2H7zM4 4h2v4H4zM1 2h2v6H1z"/></g></g></svg><svg width="20" height="20" viewBox="-2 -2 20 20" id="ic_xml" y="620"><g fill="none" fill-rule="evenodd"><path d="M1.5.5v15h13V4.98L9.942.5H1.5z" stroke="#DBDBDB" fill="#F8F8F8"/><g fill="#1B8DE2"><path d="M3.148 7.464v-.7L7 4.034v.77L3.668 7.1 7 9.396v.798zM12.852 6.73v.7L9 10.16v-.77l3.332-2.296L9 4.798V4z"/></g><text transform="translate(1 8)" fill="#1B8DE2" font-family="AmazonEmber-Bold, Amazon Ember" font-size="6" font-weight="bold" letter-spacing="-.129"><tspan x=".919" y="6.995">XML</tspan></text></g></svg><svg width="20" height="20" viewBox="-2 -2 20 20" id="ic_zip" y="640"><g fill="none" fill-rule="evenodd"><rect x=".5" y=".5" width="15" height="11" rx=".5" transform="translate(0 3)" fill="#F8F8F8" stroke="#DBDBDB"/><path fill="#DBDBDB" d="M2.116 1H5.66L8 3l-8.5.5z"/><g><path fill="#1B8DE2" d="M6 10h4v3H6zM6 4h4v1H6zM6 6h4v1H6zM6 8h4v1H6z"/><path fill="#F8F8F8" d="M7 11h2v1H7z"/></g></g></svg></svg>
